<mxfile host="app.diagrams.net" modified="2024-04-18T16:38:05.898Z" agent="Mozilla/5.0 (Windows NT 10.0; Win64; x64) AppleWebKit/537.36 (KHTML, like Gecko) Chrome/123.0.0.0 Safari/537.36" etag="SiCyVa3jA9E77iGDEWcj" version="24.2.5" type="device">
  <diagram id="soKQwOYQeGzvN5jNcOd6" name="Page-1">
    <mxGraphModel dx="3227" dy="3447" grid="1" gridSize="10" guides="1" tooltips="1" connect="1" arrows="1" fold="1" page="0" pageScale="1" pageWidth="850" pageHeight="1100" math="0" shadow="0">
      <root>
        <mxCell id="0" />
        <mxCell id="1" parent="0" />
        <mxCell id="M2bRDbCkIC7zwZt0Boz4-1" value="student" style="shape=table;startSize=30;container=1;collapsible=1;childLayout=tableLayout;fixedRows=1;rowLines=0;fontStyle=1;align=center;resizeLast=1;rounded=0;" parent="1" vertex="1">
          <mxGeometry x="520" y="350" width="330" height="190" as="geometry" />
        </mxCell>
        <mxCell id="M2bRDbCkIC7zwZt0Boz4-2" value="" style="shape=partialRectangle;collapsible=0;dropTarget=0;pointerEvents=0;fillColor=none;top=0;left=0;bottom=1;right=0;points=[[0,0.5],[1,0.5]];portConstraint=eastwest;" parent="M2bRDbCkIC7zwZt0Boz4-1" vertex="1">
          <mxGeometry y="30" width="330" height="30" as="geometry" />
        </mxCell>
        <mxCell id="M2bRDbCkIC7zwZt0Boz4-3" value="PK" style="shape=partialRectangle;connectable=0;fillColor=none;top=0;left=0;bottom=0;right=0;fontStyle=1;overflow=hidden;" parent="M2bRDbCkIC7zwZt0Boz4-2" vertex="1">
          <mxGeometry width="30" height="30" as="geometry" />
        </mxCell>
        <mxCell id="M2bRDbCkIC7zwZt0Boz4-4" value="id" style="shape=partialRectangle;connectable=0;fillColor=none;top=0;left=0;bottom=0;right=0;align=left;spacingLeft=6;fontStyle=5;overflow=hidden;" parent="M2bRDbCkIC7zwZt0Boz4-2" vertex="1">
          <mxGeometry x="30" width="150" height="30" as="geometry" />
        </mxCell>
        <mxCell id="M2bRDbCkIC7zwZt0Boz4-17" value="BIG SERIAL NOT NULL" style="shape=partialRectangle;connectable=0;fillColor=none;top=0;left=0;bottom=0;right=0;align=left;spacingLeft=6;fontStyle=1;overflow=hidden;" parent="M2bRDbCkIC7zwZt0Boz4-2" vertex="1">
          <mxGeometry x="180" width="150" height="30" as="geometry" />
        </mxCell>
        <mxCell id="M2bRDbCkIC7zwZt0Boz4-5" value="" style="shape=partialRectangle;collapsible=0;dropTarget=0;pointerEvents=0;fillColor=none;top=0;left=0;bottom=0;right=0;points=[[0,0.5],[1,0.5]];portConstraint=eastwest;" parent="M2bRDbCkIC7zwZt0Boz4-1" vertex="1">
          <mxGeometry y="60" width="330" height="30" as="geometry" />
        </mxCell>
        <mxCell id="M2bRDbCkIC7zwZt0Boz4-6" value="" style="shape=partialRectangle;connectable=0;fillColor=none;top=0;left=0;bottom=0;right=0;editable=1;overflow=hidden;" parent="M2bRDbCkIC7zwZt0Boz4-5" vertex="1">
          <mxGeometry width="30" height="30" as="geometry" />
        </mxCell>
        <mxCell id="M2bRDbCkIC7zwZt0Boz4-7" value="first_name" style="shape=partialRectangle;connectable=0;fillColor=none;top=0;left=0;bottom=0;right=0;align=left;spacingLeft=6;overflow=hidden;" parent="M2bRDbCkIC7zwZt0Boz4-5" vertex="1">
          <mxGeometry x="30" width="150" height="30" as="geometry" />
        </mxCell>
        <mxCell id="M2bRDbCkIC7zwZt0Boz4-18" value="TEXT NOT NULL" style="shape=partialRectangle;connectable=0;fillColor=none;top=0;left=0;bottom=0;right=0;align=left;spacingLeft=6;overflow=hidden;fontStyle=1" parent="M2bRDbCkIC7zwZt0Boz4-5" vertex="1">
          <mxGeometry x="180" width="150" height="30" as="geometry" />
        </mxCell>
        <mxCell id="M2bRDbCkIC7zwZt0Boz4-8" value="" style="shape=partialRectangle;collapsible=0;dropTarget=0;pointerEvents=0;fillColor=none;top=0;left=0;bottom=0;right=0;points=[[0,0.5],[1,0.5]];portConstraint=eastwest;" parent="M2bRDbCkIC7zwZt0Boz4-1" vertex="1">
          <mxGeometry y="90" width="330" height="30" as="geometry" />
        </mxCell>
        <mxCell id="M2bRDbCkIC7zwZt0Boz4-9" value="" style="shape=partialRectangle;connectable=0;fillColor=none;top=0;left=0;bottom=0;right=0;editable=1;overflow=hidden;" parent="M2bRDbCkIC7zwZt0Boz4-8" vertex="1">
          <mxGeometry width="30" height="30" as="geometry" />
        </mxCell>
        <mxCell id="M2bRDbCkIC7zwZt0Boz4-10" value="last_name" style="shape=partialRectangle;connectable=0;fillColor=none;top=0;left=0;bottom=0;right=0;align=left;spacingLeft=6;overflow=hidden;" parent="M2bRDbCkIC7zwZt0Boz4-8" vertex="1">
          <mxGeometry x="30" width="150" height="30" as="geometry" />
        </mxCell>
        <mxCell id="M2bRDbCkIC7zwZt0Boz4-19" value="TEXT NOT NULL" style="shape=partialRectangle;connectable=0;fillColor=none;top=0;left=0;bottom=0;right=0;align=left;spacingLeft=6;overflow=hidden;fontStyle=1" parent="M2bRDbCkIC7zwZt0Boz4-8" vertex="1">
          <mxGeometry x="180" width="150" height="30" as="geometry" />
        </mxCell>
        <mxCell id="M2bRDbCkIC7zwZt0Boz4-11" value="" style="shape=partialRectangle;collapsible=0;dropTarget=0;pointerEvents=0;fillColor=none;top=0;left=0;bottom=0;right=0;points=[[0,0.5],[1,0.5]];portConstraint=eastwest;" parent="M2bRDbCkIC7zwZt0Boz4-1" vertex="1">
          <mxGeometry y="120" width="330" height="30" as="geometry" />
        </mxCell>
        <mxCell id="M2bRDbCkIC7zwZt0Boz4-12" value="UN" style="shape=partialRectangle;connectable=0;fillColor=none;top=0;left=0;bottom=0;right=0;editable=1;overflow=hidden;fontStyle=1" parent="M2bRDbCkIC7zwZt0Boz4-11" vertex="1">
          <mxGeometry width="30" height="30" as="geometry" />
        </mxCell>
        <mxCell id="M2bRDbCkIC7zwZt0Boz4-13" value="email" style="shape=partialRectangle;connectable=0;fillColor=none;top=0;left=0;bottom=0;right=0;align=left;spacingLeft=6;overflow=hidden;" parent="M2bRDbCkIC7zwZt0Boz4-11" vertex="1">
          <mxGeometry x="30" width="150" height="30" as="geometry" />
        </mxCell>
        <mxCell id="M2bRDbCkIC7zwZt0Boz4-20" value="TEXT NOT NULL" style="shape=partialRectangle;connectable=0;fillColor=none;top=0;left=0;bottom=0;right=0;align=left;spacingLeft=6;overflow=hidden;fontStyle=1" parent="M2bRDbCkIC7zwZt0Boz4-11" vertex="1">
          <mxGeometry x="180" width="150" height="30" as="geometry" />
        </mxCell>
        <mxCell id="M2bRDbCkIC7zwZt0Boz4-14" style="shape=partialRectangle;collapsible=0;dropTarget=0;pointerEvents=0;fillColor=none;top=0;left=0;bottom=0;right=0;points=[[0,0.5],[1,0.5]];portConstraint=eastwest;" parent="M2bRDbCkIC7zwZt0Boz4-1" vertex="1">
          <mxGeometry y="150" width="330" height="30" as="geometry" />
        </mxCell>
        <mxCell id="M2bRDbCkIC7zwZt0Boz4-15" style="shape=partialRectangle;connectable=0;fillColor=none;top=0;left=0;bottom=0;right=0;editable=1;overflow=hidden;" parent="M2bRDbCkIC7zwZt0Boz4-14" vertex="1">
          <mxGeometry width="30" height="30" as="geometry" />
        </mxCell>
        <mxCell id="M2bRDbCkIC7zwZt0Boz4-16" value="age" style="shape=partialRectangle;connectable=0;fillColor=none;top=0;left=0;bottom=0;right=0;align=left;spacingLeft=6;overflow=hidden;" parent="M2bRDbCkIC7zwZt0Boz4-14" vertex="1">
          <mxGeometry x="30" width="150" height="30" as="geometry" />
        </mxCell>
        <mxCell id="M2bRDbCkIC7zwZt0Boz4-21" value="INT NOT NULL" style="shape=partialRectangle;connectable=0;fillColor=none;top=0;left=0;bottom=0;right=0;align=left;spacingLeft=6;overflow=hidden;fontStyle=1" parent="M2bRDbCkIC7zwZt0Boz4-14" vertex="1">
          <mxGeometry x="180" width="150" height="30" as="geometry" />
        </mxCell>
        <mxCell id="M2bRDbCkIC7zwZt0Boz4-22" value="" style="shape=cylinder3;whiteSpace=wrap;html=1;boundedLbl=1;backgroundOutline=1;size=15;rounded=0;" parent="1" vertex="1">
          <mxGeometry x="1260" y="410" width="60" height="80" as="geometry" />
        </mxCell>
        <mxCell id="M2bRDbCkIC7zwZt0Boz4-25" style="edgeStyle=orthogonalEdgeStyle;rounded=0;orthogonalLoop=1;jettySize=auto;html=1;exitX=1;exitY=0.5;exitDx=0;exitDy=0;entryX=0.005;entryY=0.561;entryDx=0;entryDy=0;entryPerimeter=0;" parent="1" source="M2bRDbCkIC7zwZt0Boz4-23" target="M2bRDbCkIC7zwZt0Boz4-22" edge="1">
          <mxGeometry relative="1" as="geometry" />
        </mxCell>
        <mxCell id="M2bRDbCkIC7zwZt0Boz4-23" value="Student.java" style="rounded=0;whiteSpace=wrap;html=1;" parent="1" vertex="1">
          <mxGeometry x="990" y="425" width="120" height="60" as="geometry" />
        </mxCell>
        <mxCell id="M2bRDbCkIC7zwZt0Boz4-24" style="edgeStyle=orthogonalEdgeStyle;rounded=0;orthogonalLoop=1;jettySize=auto;html=1;exitX=1;exitY=0.5;exitDx=0;exitDy=0;entryX=0;entryY=0.5;entryDx=0;entryDy=0;" parent="1" source="M2bRDbCkIC7zwZt0Boz4-8" target="M2bRDbCkIC7zwZt0Boz4-23" edge="1">
          <mxGeometry relative="1" as="geometry" />
        </mxCell>
        <mxCell id="M2bRDbCkIC7zwZt0Boz4-155" style="edgeStyle=orthogonalEdgeStyle;rounded=0;orthogonalLoop=1;jettySize=auto;html=1;exitX=0.5;exitY=1;exitDx=0;exitDy=0;endSize=16;startSize=16;endArrow=ERmandOne;endFill=0;startArrow=ERmandOne;startFill=0;" parent="1" source="M2bRDbCkIC7zwZt0Boz4-26" target="M2bRDbCkIC7zwZt0Boz4-110" edge="1">
          <mxGeometry relative="1" as="geometry" />
        </mxCell>
        <mxCell id="M2bRDbCkIC7zwZt0Boz4-170" style="edgeStyle=orthogonalEdgeStyle;rounded=0;orthogonalLoop=1;jettySize=auto;html=1;exitX=0.5;exitY=0;exitDx=0;exitDy=0;entryX=0.5;entryY=1;entryDx=0;entryDy=0;endArrow=ERzeroToMany;endFill=1;endSize=16;startSize=16;startArrow=ERmandOne;startFill=0;" parent="1" source="M2bRDbCkIC7zwZt0Boz4-26" target="M2bRDbCkIC7zwZt0Boz4-157" edge="1">
          <mxGeometry relative="1" as="geometry" />
        </mxCell>
        <mxCell id="M2bRDbCkIC7zwZt0Boz4-26" value="student" style="shape=table;startSize=30;container=1;collapsible=1;childLayout=tableLayout;fixedRows=1;rowLines=0;fontStyle=1;align=center;resizeLast=1;rounded=0;fillColor=#f5f5f5;strokeColor=#666666;fontColor=#333333;" parent="1" vertex="1">
          <mxGeometry x="300" y="-640" width="330" height="190" as="geometry" />
        </mxCell>
        <mxCell id="M2bRDbCkIC7zwZt0Boz4-27" value="" style="shape=partialRectangle;collapsible=0;dropTarget=0;pointerEvents=0;fillColor=none;top=0;left=0;bottom=1;right=0;points=[[0,0.5],[1,0.5]];portConstraint=eastwest;" parent="M2bRDbCkIC7zwZt0Boz4-26" vertex="1">
          <mxGeometry y="30" width="330" height="30" as="geometry" />
        </mxCell>
        <mxCell id="M2bRDbCkIC7zwZt0Boz4-28" value="PK" style="shape=partialRectangle;connectable=0;fillColor=none;top=0;left=0;bottom=0;right=0;fontStyle=1;overflow=hidden;" parent="M2bRDbCkIC7zwZt0Boz4-27" vertex="1">
          <mxGeometry width="30" height="30" as="geometry" />
        </mxCell>
        <mxCell id="M2bRDbCkIC7zwZt0Boz4-29" value="id" style="shape=partialRectangle;connectable=0;fillColor=none;top=0;left=0;bottom=0;right=0;align=left;spacingLeft=6;fontStyle=5;overflow=hidden;" parent="M2bRDbCkIC7zwZt0Boz4-27" vertex="1">
          <mxGeometry x="30" width="150" height="30" as="geometry" />
        </mxCell>
        <mxCell id="M2bRDbCkIC7zwZt0Boz4-30" value="BIG SERIAL NOT NULL" style="shape=partialRectangle;connectable=0;fillColor=none;top=0;left=0;bottom=0;right=0;align=left;spacingLeft=6;fontStyle=1;overflow=hidden;" parent="M2bRDbCkIC7zwZt0Boz4-27" vertex="1">
          <mxGeometry x="180" width="150" height="30" as="geometry" />
        </mxCell>
        <mxCell id="M2bRDbCkIC7zwZt0Boz4-31" value="" style="shape=partialRectangle;collapsible=0;dropTarget=0;pointerEvents=0;fillColor=none;top=0;left=0;bottom=0;right=0;points=[[0,0.5],[1,0.5]];portConstraint=eastwest;" parent="M2bRDbCkIC7zwZt0Boz4-26" vertex="1">
          <mxGeometry y="60" width="330" height="30" as="geometry" />
        </mxCell>
        <mxCell id="M2bRDbCkIC7zwZt0Boz4-32" value="" style="shape=partialRectangle;connectable=0;fillColor=none;top=0;left=0;bottom=0;right=0;editable=1;overflow=hidden;" parent="M2bRDbCkIC7zwZt0Boz4-31" vertex="1">
          <mxGeometry width="30" height="30" as="geometry" />
        </mxCell>
        <mxCell id="M2bRDbCkIC7zwZt0Boz4-33" value="first_name" style="shape=partialRectangle;connectable=0;fillColor=none;top=0;left=0;bottom=0;right=0;align=left;spacingLeft=6;overflow=hidden;" parent="M2bRDbCkIC7zwZt0Boz4-31" vertex="1">
          <mxGeometry x="30" width="150" height="30" as="geometry" />
        </mxCell>
        <mxCell id="M2bRDbCkIC7zwZt0Boz4-34" value="TEXT NOT NULL" style="shape=partialRectangle;connectable=0;fillColor=none;top=0;left=0;bottom=0;right=0;align=left;spacingLeft=6;overflow=hidden;fontStyle=1" parent="M2bRDbCkIC7zwZt0Boz4-31" vertex="1">
          <mxGeometry x="180" width="150" height="30" as="geometry" />
        </mxCell>
        <mxCell id="M2bRDbCkIC7zwZt0Boz4-35" value="" style="shape=partialRectangle;collapsible=0;dropTarget=0;pointerEvents=0;fillColor=none;top=0;left=0;bottom=0;right=0;points=[[0,0.5],[1,0.5]];portConstraint=eastwest;" parent="M2bRDbCkIC7zwZt0Boz4-26" vertex="1">
          <mxGeometry y="90" width="330" height="30" as="geometry" />
        </mxCell>
        <mxCell id="M2bRDbCkIC7zwZt0Boz4-36" value="" style="shape=partialRectangle;connectable=0;fillColor=none;top=0;left=0;bottom=0;right=0;editable=1;overflow=hidden;" parent="M2bRDbCkIC7zwZt0Boz4-35" vertex="1">
          <mxGeometry width="30" height="30" as="geometry" />
        </mxCell>
        <mxCell id="M2bRDbCkIC7zwZt0Boz4-37" value="last_name" style="shape=partialRectangle;connectable=0;fillColor=none;top=0;left=0;bottom=0;right=0;align=left;spacingLeft=6;overflow=hidden;" parent="M2bRDbCkIC7zwZt0Boz4-35" vertex="1">
          <mxGeometry x="30" width="150" height="30" as="geometry" />
        </mxCell>
        <mxCell id="M2bRDbCkIC7zwZt0Boz4-38" value="TEXT NOT NULL" style="shape=partialRectangle;connectable=0;fillColor=none;top=0;left=0;bottom=0;right=0;align=left;spacingLeft=6;overflow=hidden;fontStyle=1" parent="M2bRDbCkIC7zwZt0Boz4-35" vertex="1">
          <mxGeometry x="180" width="150" height="30" as="geometry" />
        </mxCell>
        <mxCell id="M2bRDbCkIC7zwZt0Boz4-39" value="" style="shape=partialRectangle;collapsible=0;dropTarget=0;pointerEvents=0;fillColor=none;top=0;left=0;bottom=0;right=0;points=[[0,0.5],[1,0.5]];portConstraint=eastwest;" parent="M2bRDbCkIC7zwZt0Boz4-26" vertex="1">
          <mxGeometry y="120" width="330" height="30" as="geometry" />
        </mxCell>
        <mxCell id="M2bRDbCkIC7zwZt0Boz4-40" value="UN" style="shape=partialRectangle;connectable=0;fillColor=none;top=0;left=0;bottom=0;right=0;editable=1;overflow=hidden;fontStyle=1" parent="M2bRDbCkIC7zwZt0Boz4-39" vertex="1">
          <mxGeometry width="30" height="30" as="geometry" />
        </mxCell>
        <mxCell id="M2bRDbCkIC7zwZt0Boz4-41" value="email" style="shape=partialRectangle;connectable=0;fillColor=none;top=0;left=0;bottom=0;right=0;align=left;spacingLeft=6;overflow=hidden;" parent="M2bRDbCkIC7zwZt0Boz4-39" vertex="1">
          <mxGeometry x="30" width="150" height="30" as="geometry" />
        </mxCell>
        <mxCell id="M2bRDbCkIC7zwZt0Boz4-42" value="TEXT NOT NULL" style="shape=partialRectangle;connectable=0;fillColor=none;top=0;left=0;bottom=0;right=0;align=left;spacingLeft=6;overflow=hidden;fontStyle=1" parent="M2bRDbCkIC7zwZt0Boz4-39" vertex="1">
          <mxGeometry x="180" width="150" height="30" as="geometry" />
        </mxCell>
        <mxCell id="M2bRDbCkIC7zwZt0Boz4-43" style="shape=partialRectangle;collapsible=0;dropTarget=0;pointerEvents=0;fillColor=none;top=0;left=0;bottom=0;right=0;points=[[0,0.5],[1,0.5]];portConstraint=eastwest;" parent="M2bRDbCkIC7zwZt0Boz4-26" vertex="1">
          <mxGeometry y="150" width="330" height="30" as="geometry" />
        </mxCell>
        <mxCell id="M2bRDbCkIC7zwZt0Boz4-44" style="shape=partialRectangle;connectable=0;fillColor=none;top=0;left=0;bottom=0;right=0;editable=1;overflow=hidden;" parent="M2bRDbCkIC7zwZt0Boz4-43" vertex="1">
          <mxGeometry width="30" height="30" as="geometry" />
        </mxCell>
        <mxCell id="M2bRDbCkIC7zwZt0Boz4-45" value="age" style="shape=partialRectangle;connectable=0;fillColor=none;top=0;left=0;bottom=0;right=0;align=left;spacingLeft=6;overflow=hidden;" parent="M2bRDbCkIC7zwZt0Boz4-43" vertex="1">
          <mxGeometry x="30" width="150" height="30" as="geometry" />
        </mxCell>
        <mxCell id="M2bRDbCkIC7zwZt0Boz4-46" value="INT NOT NULL" style="shape=partialRectangle;connectable=0;fillColor=none;top=0;left=0;bottom=0;right=0;align=left;spacingLeft=6;overflow=hidden;fontStyle=1" parent="M2bRDbCkIC7zwZt0Boz4-43" vertex="1">
          <mxGeometry x="180" width="150" height="30" as="geometry" />
        </mxCell>
        <mxCell id="M2bRDbCkIC7zwZt0Boz4-68" value="course" style="shape=table;startSize=30;container=1;collapsible=1;childLayout=tableLayout;fixedRows=1;rowLines=0;fontStyle=1;align=center;resizeLast=1;rounded=0;fillColor=#f5f5f5;strokeColor=#666666;fontColor=#333333;" parent="1" vertex="1">
          <mxGeometry x="1430" y="-630" width="330" height="130" as="geometry" />
        </mxCell>
        <mxCell id="M2bRDbCkIC7zwZt0Boz4-69" value="" style="shape=partialRectangle;collapsible=0;dropTarget=0;pointerEvents=0;fillColor=none;top=0;left=0;bottom=1;right=0;points=[[0,0.5],[1,0.5]];portConstraint=eastwest;" parent="M2bRDbCkIC7zwZt0Boz4-68" vertex="1">
          <mxGeometry y="30" width="330" height="30" as="geometry" />
        </mxCell>
        <mxCell id="M2bRDbCkIC7zwZt0Boz4-70" value="PK" style="shape=partialRectangle;connectable=0;fillColor=none;top=0;left=0;bottom=0;right=0;fontStyle=1;overflow=hidden;" parent="M2bRDbCkIC7zwZt0Boz4-69" vertex="1">
          <mxGeometry width="30" height="30" as="geometry" />
        </mxCell>
        <mxCell id="M2bRDbCkIC7zwZt0Boz4-71" value="id" style="shape=partialRectangle;connectable=0;fillColor=none;top=0;left=0;bottom=0;right=0;align=left;spacingLeft=6;fontStyle=5;overflow=hidden;" parent="M2bRDbCkIC7zwZt0Boz4-69" vertex="1">
          <mxGeometry x="30" width="150" height="30" as="geometry" />
        </mxCell>
        <mxCell id="M2bRDbCkIC7zwZt0Boz4-72" value="BIG SERIAL NOT NULL" style="shape=partialRectangle;connectable=0;fillColor=none;top=0;left=0;bottom=0;right=0;align=left;spacingLeft=6;fontStyle=1;overflow=hidden;" parent="M2bRDbCkIC7zwZt0Boz4-69" vertex="1">
          <mxGeometry x="180" width="150" height="30" as="geometry" />
        </mxCell>
        <mxCell id="M2bRDbCkIC7zwZt0Boz4-73" value="" style="shape=partialRectangle;collapsible=0;dropTarget=0;pointerEvents=0;fillColor=none;top=0;left=0;bottom=0;right=0;points=[[0,0.5],[1,0.5]];portConstraint=eastwest;" parent="M2bRDbCkIC7zwZt0Boz4-68" vertex="1">
          <mxGeometry y="60" width="330" height="30" as="geometry" />
        </mxCell>
        <mxCell id="M2bRDbCkIC7zwZt0Boz4-74" value="" style="shape=partialRectangle;connectable=0;fillColor=none;top=0;left=0;bottom=0;right=0;editable=1;overflow=hidden;" parent="M2bRDbCkIC7zwZt0Boz4-73" vertex="1">
          <mxGeometry width="30" height="30" as="geometry" />
        </mxCell>
        <mxCell id="M2bRDbCkIC7zwZt0Boz4-75" value="name" style="shape=partialRectangle;connectable=0;fillColor=none;top=0;left=0;bottom=0;right=0;align=left;spacingLeft=6;overflow=hidden;" parent="M2bRDbCkIC7zwZt0Boz4-73" vertex="1">
          <mxGeometry x="30" width="150" height="30" as="geometry" />
        </mxCell>
        <mxCell id="M2bRDbCkIC7zwZt0Boz4-76" value="TEXT NOT NULL" style="shape=partialRectangle;connectable=0;fillColor=none;top=0;left=0;bottom=0;right=0;align=left;spacingLeft=6;overflow=hidden;fontStyle=1" parent="M2bRDbCkIC7zwZt0Boz4-73" vertex="1">
          <mxGeometry x="180" width="150" height="30" as="geometry" />
        </mxCell>
        <mxCell id="M2bRDbCkIC7zwZt0Boz4-77" value="" style="shape=partialRectangle;collapsible=0;dropTarget=0;pointerEvents=0;fillColor=none;top=0;left=0;bottom=0;right=0;points=[[0,0.5],[1,0.5]];portConstraint=eastwest;" parent="M2bRDbCkIC7zwZt0Boz4-68" vertex="1">
          <mxGeometry y="90" width="330" height="30" as="geometry" />
        </mxCell>
        <mxCell id="M2bRDbCkIC7zwZt0Boz4-78" value="" style="shape=partialRectangle;connectable=0;fillColor=none;top=0;left=0;bottom=0;right=0;editable=1;overflow=hidden;" parent="M2bRDbCkIC7zwZt0Boz4-77" vertex="1">
          <mxGeometry width="30" height="30" as="geometry" />
        </mxCell>
        <mxCell id="M2bRDbCkIC7zwZt0Boz4-79" value="department" style="shape=partialRectangle;connectable=0;fillColor=none;top=0;left=0;bottom=0;right=0;align=left;spacingLeft=6;overflow=hidden;" parent="M2bRDbCkIC7zwZt0Boz4-77" vertex="1">
          <mxGeometry x="30" width="150" height="30" as="geometry" />
        </mxCell>
        <mxCell id="M2bRDbCkIC7zwZt0Boz4-80" value="TEXT NOT NULL" style="shape=partialRectangle;connectable=0;fillColor=none;top=0;left=0;bottom=0;right=0;align=left;spacingLeft=6;overflow=hidden;fontStyle=1" parent="M2bRDbCkIC7zwZt0Boz4-77" vertex="1">
          <mxGeometry x="180" width="150" height="30" as="geometry" />
        </mxCell>
        <mxCell id="M2bRDbCkIC7zwZt0Boz4-89" value="enrolment" style="shape=table;startSize=30;container=1;collapsible=1;childLayout=tableLayout;fixedRows=1;rowLines=0;fontStyle=1;align=center;resizeLast=1;rounded=0;shadow=0;sketch=0;fillColor=#f5f5f5;strokeColor=#666666;fontColor=#333333;" parent="1" vertex="1">
          <mxGeometry x="850" y="-640" width="390" height="130" as="geometry" />
        </mxCell>
        <mxCell id="M2bRDbCkIC7zwZt0Boz4-94" value="" style="shape=partialRectangle;collapsible=0;dropTarget=0;pointerEvents=0;fillColor=none;top=0;left=0;bottom=0;right=0;points=[[0,0.5],[1,0.5]];portConstraint=eastwest;" parent="M2bRDbCkIC7zwZt0Boz4-89" vertex="1">
          <mxGeometry y="30" width="390" height="30" as="geometry" />
        </mxCell>
        <mxCell id="M2bRDbCkIC7zwZt0Boz4-95" value="PK, FK" style="shape=partialRectangle;connectable=0;fillColor=none;top=0;left=0;bottom=0;right=0;editable=1;overflow=hidden;fontStyle=1" parent="M2bRDbCkIC7zwZt0Boz4-94" vertex="1">
          <mxGeometry width="60" height="30" as="geometry" />
        </mxCell>
        <mxCell id="M2bRDbCkIC7zwZt0Boz4-96" value="student_id" style="shape=partialRectangle;connectable=0;fillColor=none;top=0;left=0;bottom=0;right=0;align=left;spacingLeft=6;overflow=hidden;" parent="M2bRDbCkIC7zwZt0Boz4-94" vertex="1">
          <mxGeometry x="60" width="120" height="30" as="geometry" />
        </mxCell>
        <mxCell id="M2bRDbCkIC7zwZt0Boz4-97" value="BIG INT NOT NULL" style="shape=partialRectangle;connectable=0;fillColor=none;top=0;left=0;bottom=0;right=0;align=left;spacingLeft=6;overflow=hidden;fontStyle=1" parent="M2bRDbCkIC7zwZt0Boz4-94" vertex="1">
          <mxGeometry x="180" width="210" height="30" as="geometry" />
        </mxCell>
        <mxCell id="M2bRDbCkIC7zwZt0Boz4-98" value="" style="shape=partialRectangle;collapsible=0;dropTarget=0;pointerEvents=0;fillColor=none;top=0;left=0;bottom=0;right=0;points=[[0,0.5],[1,0.5]];portConstraint=eastwest;" parent="M2bRDbCkIC7zwZt0Boz4-89" vertex="1">
          <mxGeometry y="60" width="390" height="30" as="geometry" />
        </mxCell>
        <mxCell id="M2bRDbCkIC7zwZt0Boz4-99" value="PK, FK" style="shape=partialRectangle;connectable=0;fillColor=none;top=0;left=0;bottom=0;right=0;editable=1;overflow=hidden;fontStyle=1" parent="M2bRDbCkIC7zwZt0Boz4-98" vertex="1">
          <mxGeometry width="60" height="30" as="geometry" />
        </mxCell>
        <mxCell id="M2bRDbCkIC7zwZt0Boz4-100" value="course_id" style="shape=partialRectangle;connectable=0;fillColor=none;top=0;left=0;bottom=0;right=0;align=left;spacingLeft=6;overflow=hidden;" parent="M2bRDbCkIC7zwZt0Boz4-98" vertex="1">
          <mxGeometry x="60" width="120" height="30" as="geometry" />
        </mxCell>
        <mxCell id="M2bRDbCkIC7zwZt0Boz4-101" value="BIG INT NOT NULL" style="shape=partialRectangle;connectable=0;fillColor=none;top=0;left=0;bottom=0;right=0;align=left;spacingLeft=6;overflow=hidden;fontStyle=1" parent="M2bRDbCkIC7zwZt0Boz4-98" vertex="1">
          <mxGeometry x="180" width="210" height="30" as="geometry" />
        </mxCell>
        <mxCell id="M2bRDbCkIC7zwZt0Boz4-102" value="" style="shape=partialRectangle;collapsible=0;dropTarget=0;pointerEvents=0;fillColor=none;top=0;left=0;bottom=0;right=0;points=[[0,0.5],[1,0.5]];portConstraint=eastwest;" parent="M2bRDbCkIC7zwZt0Boz4-89" vertex="1">
          <mxGeometry y="90" width="390" height="30" as="geometry" />
        </mxCell>
        <mxCell id="M2bRDbCkIC7zwZt0Boz4-103" value="" style="shape=partialRectangle;connectable=0;fillColor=none;top=0;left=0;bottom=0;right=0;editable=1;overflow=hidden;fontStyle=1" parent="M2bRDbCkIC7zwZt0Boz4-102" vertex="1">
          <mxGeometry width="60" height="30" as="geometry" />
        </mxCell>
        <mxCell id="M2bRDbCkIC7zwZt0Boz4-104" value="created_at" style="shape=partialRectangle;connectable=0;fillColor=none;top=0;left=0;bottom=0;right=0;align=left;spacingLeft=6;overflow=hidden;" parent="M2bRDbCkIC7zwZt0Boz4-102" vertex="1">
          <mxGeometry x="60" width="120" height="30" as="geometry" />
        </mxCell>
        <mxCell id="M2bRDbCkIC7zwZt0Boz4-105" value="TIMESTAMP WITHOUT TIME ZONE &#xa;NOT NULL" style="shape=partialRectangle;connectable=0;fillColor=none;top=0;left=0;bottom=0;right=0;align=left;spacingLeft=6;overflow=hidden;fontStyle=1" parent="M2bRDbCkIC7zwZt0Boz4-102" vertex="1">
          <mxGeometry x="180" width="210" height="30" as="geometry" />
        </mxCell>
        <mxCell id="M2bRDbCkIC7zwZt0Boz4-110" value="student_id_card" style="shape=table;startSize=30;container=1;collapsible=1;childLayout=tableLayout;fixedRows=1;rowLines=0;fontStyle=1;align=center;resizeLast=1;rounded=0;fillColor=#f5f5f5;strokeColor=#666666;fontColor=#333333;" parent="1" vertex="1">
          <mxGeometry x="300" y="-350" width="330" height="130" as="geometry" />
        </mxCell>
        <mxCell id="M2bRDbCkIC7zwZt0Boz4-111" value="" style="shape=partialRectangle;collapsible=0;dropTarget=0;pointerEvents=0;fillColor=none;top=0;left=0;bottom=1;right=0;points=[[0,0.5],[1,0.5]];portConstraint=eastwest;" parent="M2bRDbCkIC7zwZt0Boz4-110" vertex="1">
          <mxGeometry y="30" width="330" height="30" as="geometry" />
        </mxCell>
        <mxCell id="M2bRDbCkIC7zwZt0Boz4-112" value="PK" style="shape=partialRectangle;connectable=0;fillColor=none;top=0;left=0;bottom=0;right=0;fontStyle=1;overflow=hidden;" parent="M2bRDbCkIC7zwZt0Boz4-111" vertex="1">
          <mxGeometry width="30" height="30" as="geometry" />
        </mxCell>
        <mxCell id="M2bRDbCkIC7zwZt0Boz4-113" value="id" style="shape=partialRectangle;connectable=0;fillColor=none;top=0;left=0;bottom=0;right=0;align=left;spacingLeft=6;fontStyle=5;overflow=hidden;" parent="M2bRDbCkIC7zwZt0Boz4-111" vertex="1">
          <mxGeometry x="30" width="150" height="30" as="geometry" />
        </mxCell>
        <mxCell id="M2bRDbCkIC7zwZt0Boz4-114" value="BIG SERIAL NOT NULL" style="shape=partialRectangle;connectable=0;fillColor=none;top=0;left=0;bottom=0;right=0;align=left;spacingLeft=6;fontStyle=1;overflow=hidden;" parent="M2bRDbCkIC7zwZt0Boz4-111" vertex="1">
          <mxGeometry x="180" width="150" height="30" as="geometry" />
        </mxCell>
        <mxCell id="M2bRDbCkIC7zwZt0Boz4-115" value="" style="shape=partialRectangle;collapsible=0;dropTarget=0;pointerEvents=0;fillColor=none;top=0;left=0;bottom=0;right=0;points=[[0,0.5],[1,0.5]];portConstraint=eastwest;" parent="M2bRDbCkIC7zwZt0Boz4-110" vertex="1">
          <mxGeometry y="60" width="330" height="30" as="geometry" />
        </mxCell>
        <mxCell id="M2bRDbCkIC7zwZt0Boz4-116" value="FK" style="shape=partialRectangle;connectable=0;fillColor=none;top=0;left=0;bottom=0;right=0;editable=1;overflow=hidden;fontStyle=1" parent="M2bRDbCkIC7zwZt0Boz4-115" vertex="1">
          <mxGeometry width="30" height="30" as="geometry" />
        </mxCell>
        <mxCell id="M2bRDbCkIC7zwZt0Boz4-117" value="student_id" style="shape=partialRectangle;connectable=0;fillColor=none;top=0;left=0;bottom=0;right=0;align=left;spacingLeft=6;overflow=hidden;" parent="M2bRDbCkIC7zwZt0Boz4-115" vertex="1">
          <mxGeometry x="30" width="150" height="30" as="geometry" />
        </mxCell>
        <mxCell id="M2bRDbCkIC7zwZt0Boz4-118" value="BIG INT" style="shape=partialRectangle;connectable=0;fillColor=none;top=0;left=0;bottom=0;right=0;align=left;spacingLeft=6;overflow=hidden;fontStyle=1" parent="M2bRDbCkIC7zwZt0Boz4-115" vertex="1">
          <mxGeometry x="180" width="150" height="30" as="geometry" />
        </mxCell>
        <mxCell id="M2bRDbCkIC7zwZt0Boz4-119" value="" style="shape=partialRectangle;collapsible=0;dropTarget=0;pointerEvents=0;fillColor=none;top=0;left=0;bottom=0;right=0;points=[[0,0.5],[1,0.5]];portConstraint=eastwest;" parent="M2bRDbCkIC7zwZt0Boz4-110" vertex="1">
          <mxGeometry y="90" width="330" height="30" as="geometry" />
        </mxCell>
        <mxCell id="M2bRDbCkIC7zwZt0Boz4-120" value="UN" style="shape=partialRectangle;connectable=0;fillColor=none;top=0;left=0;bottom=0;right=0;editable=1;overflow=hidden;fontStyle=1" parent="M2bRDbCkIC7zwZt0Boz4-119" vertex="1">
          <mxGeometry width="30" height="30" as="geometry" />
        </mxCell>
        <mxCell id="M2bRDbCkIC7zwZt0Boz4-121" value="card_number" style="shape=partialRectangle;connectable=0;fillColor=none;top=0;left=0;bottom=0;right=0;align=left;spacingLeft=6;overflow=hidden;" parent="M2bRDbCkIC7zwZt0Boz4-119" vertex="1">
          <mxGeometry x="30" width="150" height="30" as="geometry" />
        </mxCell>
        <mxCell id="M2bRDbCkIC7zwZt0Boz4-122" value="TEXT NOT NULL" style="shape=partialRectangle;connectable=0;fillColor=none;top=0;left=0;bottom=0;right=0;align=left;spacingLeft=6;overflow=hidden;fontStyle=1" parent="M2bRDbCkIC7zwZt0Boz4-119" vertex="1">
          <mxGeometry x="180" width="150" height="30" as="geometry" />
        </mxCell>
        <mxCell id="M2bRDbCkIC7zwZt0Boz4-153" style="edgeStyle=orthogonalEdgeStyle;rounded=0;orthogonalLoop=1;jettySize=auto;html=1;entryX=0;entryY=0.5;entryDx=0;entryDy=0;endSize=16;startSize=16;endArrow=ERzeroToMany;endFill=1;startArrow=ERmany;startFill=0;" parent="1" source="M2bRDbCkIC7zwZt0Boz4-27" target="M2bRDbCkIC7zwZt0Boz4-94" edge="1">
          <mxGeometry relative="1" as="geometry" />
        </mxCell>
        <mxCell id="M2bRDbCkIC7zwZt0Boz4-156" style="edgeStyle=orthogonalEdgeStyle;rounded=0;orthogonalLoop=1;jettySize=auto;html=1;exitX=1;exitY=0.5;exitDx=0;exitDy=0;entryX=0;entryY=0.5;entryDx=0;entryDy=0;endSize=16;startSize=16;endArrow=ERmandOne;endFill=0;startArrow=ERzeroToMany;startFill=1;" parent="1" source="M2bRDbCkIC7zwZt0Boz4-98" target="M2bRDbCkIC7zwZt0Boz4-69" edge="1">
          <mxGeometry relative="1" as="geometry" />
        </mxCell>
        <mxCell id="M2bRDbCkIC7zwZt0Boz4-157" value="book" style="shape=table;startSize=30;container=1;collapsible=1;childLayout=tableLayout;fixedRows=1;rowLines=0;fontStyle=1;align=center;resizeLast=1;rounded=0;fillColor=#f5f5f5;strokeColor=#666666;fontColor=#333333;" parent="1" vertex="1">
          <mxGeometry x="230" y="-960" width="470" height="160" as="geometry" />
        </mxCell>
        <mxCell id="M2bRDbCkIC7zwZt0Boz4-158" value="" style="shape=partialRectangle;collapsible=0;dropTarget=0;pointerEvents=0;fillColor=none;top=0;left=0;bottom=1;right=0;points=[[0,0.5],[1,0.5]];portConstraint=eastwest;" parent="M2bRDbCkIC7zwZt0Boz4-157" vertex="1">
          <mxGeometry y="30" width="470" height="30" as="geometry" />
        </mxCell>
        <mxCell id="M2bRDbCkIC7zwZt0Boz4-159" value="PK" style="shape=partialRectangle;connectable=0;fillColor=none;top=0;left=0;bottom=0;right=0;fontStyle=1;overflow=hidden;" parent="M2bRDbCkIC7zwZt0Boz4-158" vertex="1">
          <mxGeometry width="30" height="30" as="geometry" />
        </mxCell>
        <mxCell id="M2bRDbCkIC7zwZt0Boz4-160" value="id" style="shape=partialRectangle;connectable=0;fillColor=none;top=0;left=0;bottom=0;right=0;align=left;spacingLeft=6;fontStyle=5;overflow=hidden;" parent="M2bRDbCkIC7zwZt0Boz4-158" vertex="1">
          <mxGeometry x="30" width="150" height="30" as="geometry" />
        </mxCell>
        <mxCell id="M2bRDbCkIC7zwZt0Boz4-161" value="BIG SERIAL NOT NULL" style="shape=partialRectangle;connectable=0;fillColor=none;top=0;left=0;bottom=0;right=0;align=left;spacingLeft=6;fontStyle=1;overflow=hidden;" parent="M2bRDbCkIC7zwZt0Boz4-158" vertex="1">
          <mxGeometry x="180" width="290" height="30" as="geometry" />
        </mxCell>
        <mxCell id="Qj9Xfp4AFoNcpgFwBMmY-139" style="shape=partialRectangle;collapsible=0;dropTarget=0;pointerEvents=0;fillColor=none;top=0;left=0;bottom=0;right=0;points=[[0,0.5],[1,0.5]];portConstraint=eastwest;" parent="M2bRDbCkIC7zwZt0Boz4-157" vertex="1">
          <mxGeometry y="60" width="470" height="30" as="geometry" />
        </mxCell>
        <mxCell id="Qj9Xfp4AFoNcpgFwBMmY-140" value="FK" style="shape=partialRectangle;connectable=0;fillColor=none;top=0;left=0;bottom=0;right=0;editable=1;overflow=hidden;fontStyle=1" parent="Qj9Xfp4AFoNcpgFwBMmY-139" vertex="1">
          <mxGeometry width="30" height="30" as="geometry" />
        </mxCell>
        <mxCell id="Qj9Xfp4AFoNcpgFwBMmY-141" value="student_id" style="shape=partialRectangle;connectable=0;fillColor=none;top=0;left=0;bottom=0;right=0;align=left;spacingLeft=6;overflow=hidden;" parent="Qj9Xfp4AFoNcpgFwBMmY-139" vertex="1">
          <mxGeometry x="30" width="150" height="30" as="geometry" />
        </mxCell>
        <mxCell id="Qj9Xfp4AFoNcpgFwBMmY-142" value="BIG INT NOT NULL" style="shape=partialRectangle;connectable=0;fillColor=none;top=0;left=0;bottom=0;right=0;align=left;spacingLeft=6;overflow=hidden;fontStyle=1" parent="Qj9Xfp4AFoNcpgFwBMmY-139" vertex="1">
          <mxGeometry x="180" width="290" height="30" as="geometry" />
        </mxCell>
        <mxCell id="M2bRDbCkIC7zwZt0Boz4-162" value="" style="shape=partialRectangle;collapsible=0;dropTarget=0;pointerEvents=0;fillColor=none;top=0;left=0;bottom=0;right=0;points=[[0,0.5],[1,0.5]];portConstraint=eastwest;" parent="M2bRDbCkIC7zwZt0Boz4-157" vertex="1">
          <mxGeometry y="90" width="470" height="30" as="geometry" />
        </mxCell>
        <mxCell id="M2bRDbCkIC7zwZt0Boz4-163" value="" style="shape=partialRectangle;connectable=0;fillColor=none;top=0;left=0;bottom=0;right=0;editable=1;overflow=hidden;" parent="M2bRDbCkIC7zwZt0Boz4-162" vertex="1">
          <mxGeometry width="30" height="30" as="geometry" />
        </mxCell>
        <mxCell id="M2bRDbCkIC7zwZt0Boz4-164" value="book_name" style="shape=partialRectangle;connectable=0;fillColor=none;top=0;left=0;bottom=0;right=0;align=left;spacingLeft=6;overflow=hidden;" parent="M2bRDbCkIC7zwZt0Boz4-162" vertex="1">
          <mxGeometry x="30" width="150" height="30" as="geometry" />
        </mxCell>
        <mxCell id="M2bRDbCkIC7zwZt0Boz4-165" value="TEXT NOT NULL" style="shape=partialRectangle;connectable=0;fillColor=none;top=0;left=0;bottom=0;right=0;align=left;spacingLeft=6;overflow=hidden;fontStyle=1" parent="M2bRDbCkIC7zwZt0Boz4-162" vertex="1">
          <mxGeometry x="180" width="290" height="30" as="geometry" />
        </mxCell>
        <mxCell id="M2bRDbCkIC7zwZt0Boz4-166" value="" style="shape=partialRectangle;collapsible=0;dropTarget=0;pointerEvents=0;fillColor=none;top=0;left=0;bottom=0;right=0;points=[[0,0.5],[1,0.5]];portConstraint=eastwest;" parent="M2bRDbCkIC7zwZt0Boz4-157" vertex="1">
          <mxGeometry y="120" width="470" height="30" as="geometry" />
        </mxCell>
        <mxCell id="M2bRDbCkIC7zwZt0Boz4-167" value="" style="shape=partialRectangle;connectable=0;fillColor=none;top=0;left=0;bottom=0;right=0;editable=1;overflow=hidden;" parent="M2bRDbCkIC7zwZt0Boz4-166" vertex="1">
          <mxGeometry width="30" height="30" as="geometry" />
        </mxCell>
        <mxCell id="M2bRDbCkIC7zwZt0Boz4-168" value="created_at" style="shape=partialRectangle;connectable=0;fillColor=none;top=0;left=0;bottom=0;right=0;align=left;spacingLeft=6;overflow=hidden;" parent="M2bRDbCkIC7zwZt0Boz4-166" vertex="1">
          <mxGeometry x="30" width="150" height="30" as="geometry" />
        </mxCell>
        <mxCell id="M2bRDbCkIC7zwZt0Boz4-169" value="TIMESTAMP WITHOUT TIMEZONE NOT NULL" style="shape=partialRectangle;connectable=0;fillColor=none;top=0;left=0;bottom=0;right=0;align=left;spacingLeft=6;overflow=hidden;fontStyle=1" parent="M2bRDbCkIC7zwZt0Boz4-166" vertex="1">
          <mxGeometry x="180" width="290" height="30" as="geometry" />
        </mxCell>
        <mxCell id="M2bRDbCkIC7zwZt0Boz4-175" value="entity" style="rounded=0;whiteSpace=wrap;html=1;shadow=0;sketch=0;fillColor=#d5e8d4;strokeColor=#82b366;" parent="1" vertex="1">
          <mxGeometry x="990" y="400" width="50" height="20" as="geometry" />
        </mxCell>
        <mxCell id="M2bRDbCkIC7zwZt0Boz4-176" value="id" style="rounded=0;whiteSpace=wrap;html=1;shadow=0;sketch=0;fillColor=#f8cecc;strokeColor=#b85450;" parent="1" vertex="1">
          <mxGeometry x="980" y="560" width="30" height="20" as="geometry" />
        </mxCell>
        <mxCell id="M2bRDbCkIC7zwZt0Boz4-177" value="firstName" style="rounded=0;whiteSpace=wrap;html=1;shadow=0;sketch=0;fillColor=#f8cecc;strokeColor=#b85450;" parent="1" vertex="1">
          <mxGeometry x="990" y="590" width="60" height="20" as="geometry" />
        </mxCell>
        <mxCell id="M2bRDbCkIC7zwZt0Boz4-178" value="lastName" style="rounded=0;whiteSpace=wrap;html=1;shadow=0;sketch=0;fillColor=#f8cecc;strokeColor=#b85450;" parent="1" vertex="1">
          <mxGeometry x="1030" y="550" width="60" height="20" as="geometry" />
        </mxCell>
        <mxCell id="M2bRDbCkIC7zwZt0Boz4-179" value="email" style="rounded=0;whiteSpace=wrap;html=1;shadow=0;sketch=0;fillColor=#f8cecc;strokeColor=#b85450;" parent="1" vertex="1">
          <mxGeometry x="1070" y="590" width="40" height="20" as="geometry" />
        </mxCell>
        <mxCell id="M2bRDbCkIC7zwZt0Boz4-180" value="age" style="rounded=0;whiteSpace=wrap;html=1;shadow=0;sketch=0;fillColor=#f8cecc;strokeColor=#b85450;" parent="1" vertex="1">
          <mxGeometry x="1110" y="560" width="30" height="20" as="geometry" />
        </mxCell>
        <mxCell id="M2bRDbCkIC7zwZt0Boz4-182" value="" style="endArrow=none;dashed=1;html=1;" parent="1" edge="1">
          <mxGeometry width="50" height="50" relative="1" as="geometry">
            <mxPoint x="1054" y="533" as="sourcePoint" />
            <mxPoint x="1054" y="493" as="targetPoint" />
          </mxGeometry>
        </mxCell>
        <mxCell id="M2bRDbCkIC7zwZt0Boz4-183" value="properties" style="text;html=1;align=center;verticalAlign=middle;resizable=0;points=[];autosize=1;" parent="1" vertex="1">
          <mxGeometry x="1070" y="500" width="70" height="20" as="geometry" />
        </mxCell>
        <mxCell id="M2bRDbCkIC7zwZt0Boz4-184" value="table" style="rounded=0;whiteSpace=wrap;html=1;shadow=0;sketch=0;fillColor=#d5e8d4;strokeColor=#82b366;" parent="1" vertex="1">
          <mxGeometry x="990" y="370" width="50" height="20" as="geometry" />
        </mxCell>
        <mxCell id="Qj9Xfp4AFoNcpgFwBMmY-6" style="edgeStyle=orthogonalEdgeStyle;rounded=0;orthogonalLoop=1;jettySize=auto;html=1;exitX=1;exitY=0.5;exitDx=0;exitDy=0;" parent="1" source="Qj9Xfp4AFoNcpgFwBMmY-3" edge="1">
          <mxGeometry relative="1" as="geometry">
            <mxPoint x="1290" y="500" as="targetPoint" />
          </mxGeometry>
        </mxCell>
        <mxCell id="Qj9Xfp4AFoNcpgFwBMmY-18" style="edgeStyle=orthogonalEdgeStyle;rounded=0;orthogonalLoop=1;jettySize=auto;html=1;entryX=0.5;entryY=0;entryDx=0;entryDy=0;" parent="1" source="Qj9Xfp4AFoNcpgFwBMmY-3" target="Qj9Xfp4AFoNcpgFwBMmY-11" edge="1">
          <mxGeometry relative="1" as="geometry" />
        </mxCell>
        <mxCell id="Qj9Xfp4AFoNcpgFwBMmY-3" value="StudentRepository" style="rounded=0;whiteSpace=wrap;html=1;" parent="1" vertex="1">
          <mxGeometry x="990" y="720" width="120" height="60" as="geometry" />
        </mxCell>
        <mxCell id="Qj9Xfp4AFoNcpgFwBMmY-4" value="" style="endArrow=none;dashed=1;html=1;" parent="1" edge="1">
          <mxGeometry width="50" height="50" relative="1" as="geometry">
            <mxPoint x="1054" y="700" as="sourcePoint" />
            <mxPoint x="1054" y="643" as="targetPoint" />
          </mxGeometry>
        </mxCell>
        <mxCell id="Qj9Xfp4AFoNcpgFwBMmY-5" value="data access layer" style="text;html=1;align=center;verticalAlign=middle;resizable=0;points=[];autosize=1;" parent="1" vertex="1">
          <mxGeometry x="1070" y="660" width="110" height="20" as="geometry" />
        </mxCell>
        <mxCell id="Qj9Xfp4AFoNcpgFwBMmY-11" value="" style="rounded=0;whiteSpace=wrap;html=1;" parent="1" vertex="1">
          <mxGeometry x="692.5" y="880" width="715" height="140" as="geometry" />
        </mxCell>
        <mxCell id="Qj9Xfp4AFoNcpgFwBMmY-19" value="extends" style="text;html=1;align=center;verticalAlign=middle;resizable=0;points=[];autosize=1;" parent="1" vertex="1">
          <mxGeometry x="1050" y="810" width="60" height="20" as="geometry" />
        </mxCell>
        <mxCell id="Qj9Xfp4AFoNcpgFwBMmY-20" value="" style="group" parent="1" vertex="1" connectable="0">
          <mxGeometry x="740" y="920" width="170" height="80" as="geometry" />
        </mxCell>
        <mxCell id="Qj9Xfp4AFoNcpgFwBMmY-9" value="JPARepository" style="rounded=0;whiteSpace=wrap;html=1;" parent="Qj9Xfp4AFoNcpgFwBMmY-20" vertex="1">
          <mxGeometry width="120" height="60" as="geometry" />
        </mxCell>
        <mxCell id="Qj9Xfp4AFoNcpgFwBMmY-16" value="jpa methods. flush and batch" style="text;html=1;align=center;verticalAlign=middle;resizable=0;points=[];autosize=1;fillColor=#fff2cc;strokeColor=#d6b656;" parent="Qj9Xfp4AFoNcpgFwBMmY-20" vertex="1">
          <mxGeometry y="60" width="170" height="20" as="geometry" />
        </mxCell>
        <mxCell id="Qj9Xfp4AFoNcpgFwBMmY-21" value="" style="group" parent="1" vertex="1" connectable="0">
          <mxGeometry x="1250" y="920" width="120" height="80" as="geometry" />
        </mxCell>
        <mxCell id="Qj9Xfp4AFoNcpgFwBMmY-8" value="CrudRepository" style="rounded=0;whiteSpace=wrap;html=1;" parent="Qj9Xfp4AFoNcpgFwBMmY-21" vertex="1">
          <mxGeometry width="120" height="60" as="geometry" />
        </mxCell>
        <mxCell id="Qj9Xfp4AFoNcpgFwBMmY-15" value="crud functions" style="text;html=1;align=center;verticalAlign=middle;resizable=0;points=[];autosize=1;fillColor=#fff2cc;strokeColor=#d6b656;" parent="Qj9Xfp4AFoNcpgFwBMmY-21" vertex="1">
          <mxGeometry y="60" width="90" height="20" as="geometry" />
        </mxCell>
        <mxCell id="Qj9Xfp4AFoNcpgFwBMmY-22" value="" style="group" parent="1" vertex="1" connectable="0">
          <mxGeometry x="965" y="920" width="190" height="80" as="geometry" />
        </mxCell>
        <mxCell id="Qj9Xfp4AFoNcpgFwBMmY-10" value="PagingAndSortingRepository" style="rounded=0;whiteSpace=wrap;html=1;" parent="Qj9Xfp4AFoNcpgFwBMmY-22" vertex="1">
          <mxGeometry width="190" height="60" as="geometry" />
        </mxCell>
        <mxCell id="Qj9Xfp4AFoNcpgFwBMmY-17" value="pagination and sorting" style="text;html=1;align=center;verticalAlign=middle;resizable=0;points=[];autosize=1;fillColor=#fff2cc;strokeColor=#d6b656;" parent="Qj9Xfp4AFoNcpgFwBMmY-22" vertex="1">
          <mxGeometry y="60" width="130" height="20" as="geometry" />
        </mxCell>
        <mxCell id="Qj9Xfp4AFoNcpgFwBMmY-23" style="edgeStyle=orthogonalEdgeStyle;rounded=0;orthogonalLoop=1;jettySize=auto;html=1;exitX=1;exitY=0.5;exitDx=0;exitDy=0;entryX=0;entryY=0.5;entryDx=0;entryDy=0;" parent="1" source="Qj9Xfp4AFoNcpgFwBMmY-9" target="Qj9Xfp4AFoNcpgFwBMmY-10" edge="1">
          <mxGeometry relative="1" as="geometry" />
        </mxCell>
        <mxCell id="Qj9Xfp4AFoNcpgFwBMmY-24" style="edgeStyle=orthogonalEdgeStyle;rounded=0;orthogonalLoop=1;jettySize=auto;html=1;exitX=1;exitY=0.5;exitDx=0;exitDy=0;" parent="1" source="Qj9Xfp4AFoNcpgFwBMmY-10" target="Qj9Xfp4AFoNcpgFwBMmY-8" edge="1">
          <mxGeometry relative="1" as="geometry" />
        </mxCell>
        <mxCell id="Qj9Xfp4AFoNcpgFwBMmY-25" value="extends" style="text;html=1;align=center;verticalAlign=middle;resizable=0;points=[];autosize=1;" parent="1" vertex="1">
          <mxGeometry x="880" y="920" width="60" height="20" as="geometry" />
        </mxCell>
        <mxCell id="Qj9Xfp4AFoNcpgFwBMmY-26" value="extends" style="text;html=1;align=center;verticalAlign=middle;resizable=0;points=[];autosize=1;" parent="1" vertex="1">
          <mxGeometry x="1170" y="920" width="60" height="20" as="geometry" />
        </mxCell>
        <mxCell id="Qj9Xfp4AFoNcpgFwBMmY-28" value="&lt;meta charset=&quot;utf-8&quot;&gt;&lt;span style=&quot;color: rgb(51, 51, 51); font-family: helvetica, arial, freesans, clean, sans-serif; font-size: medium; font-style: normal; font-weight: 400; letter-spacing: normal; text-align: left; text-indent: 0px; text-transform: none; word-spacing: 0px; background-color: rgb(255, 255, 255); display: inline; float: none;&quot;&gt;The goal of Spring Data repository abstraction is to significantly reduce the amount of boilerplate code required to implement data access layers for various persistence stores.&lt;/span&gt;" style="text;whiteSpace=wrap;html=1;" parent="1" vertex="1">
          <mxGeometry x="360" y="720" width="550" height="60" as="geometry" />
        </mxCell>
        <mxCell id="Qj9Xfp4AFoNcpgFwBMmY-29" value="1 to many Relationships" style="text;html=1;align=center;verticalAlign=middle;resizable=0;points=[];autosize=1;" parent="1" vertex="1">
          <mxGeometry x="490" y="-740" width="140" height="20" as="geometry" />
        </mxCell>
        <mxCell id="Qj9Xfp4AFoNcpgFwBMmY-30" value="1 to 1 Relationships" style="text;html=1;align=center;verticalAlign=middle;resizable=0;points=[];autosize=1;" parent="1" vertex="1">
          <mxGeometry x="490" y="-420" width="120" height="20" as="geometry" />
        </mxCell>
        <mxCell id="Qj9Xfp4AFoNcpgFwBMmY-31" value="many to many relationships" style="text;html=1;align=center;verticalAlign=middle;resizable=0;points=[];autosize=1;" parent="1" vertex="1">
          <mxGeometry x="660" y="-540" width="160" height="20" as="geometry" />
        </mxCell>
        <mxCell id="Qj9Xfp4AFoNcpgFwBMmY-32" value="many to many relationships" style="text;html=1;align=center;verticalAlign=middle;resizable=0;points=[];autosize=1;" parent="1" vertex="1">
          <mxGeometry x="1260" y="-510" width="160" height="20" as="geometry" />
        </mxCell>
        <mxCell id="Qj9Xfp4AFoNcpgFwBMmY-34" value="PersitenceContext&lt;br&gt;&lt;br&gt;1Level Cache" style="ellipse;whiteSpace=wrap;html=1;aspect=fixed;" parent="1" vertex="1">
          <mxGeometry x="2980" y="-1060" width="175.5" height="175.5" as="geometry" />
        </mxCell>
        <mxCell id="Qj9Xfp4AFoNcpgFwBMmY-35" value="Transient / New" style="rounded=0;whiteSpace=wrap;html=1;" parent="1" vertex="1">
          <mxGeometry x="2400" y="-1090" width="120" height="60" as="geometry" />
        </mxCell>
        <mxCell id="Qj9Xfp4AFoNcpgFwBMmY-37" value="Detached" style="rounded=0;whiteSpace=wrap;html=1;" parent="1" vertex="1">
          <mxGeometry x="2400" y="-930" width="120" height="60" as="geometry" />
        </mxCell>
        <mxCell id="Qj9Xfp4AFoNcpgFwBMmY-133" style="edgeStyle=orthogonalEdgeStyle;rounded=0;orthogonalLoop=1;jettySize=auto;html=1;exitX=0.5;exitY=0;exitDx=0;exitDy=0;fontSize=30;entryX=0.159;entryY=-0.018;entryDx=0;entryDy=0;entryPerimeter=0;" parent="1" edge="1">
          <mxGeometry relative="1" as="geometry">
            <mxPoint x="2669.9999999999995" y="-1091.08" as="targetPoint" />
            <mxPoint x="2710.9199999999996" y="-1090.0000000000005" as="sourcePoint" />
            <Array as="points">
              <mxPoint x="2740" y="-1090" />
              <mxPoint x="2740" y="-1120" />
              <mxPoint x="2670" y="-1120" />
            </Array>
          </mxGeometry>
        </mxCell>
        <mxCell id="Qj9Xfp4AFoNcpgFwBMmY-134" value="&lt;span style=&quot;font-size: 12px&quot;&gt;refresh&lt;/span&gt;" style="edgeLabel;html=1;align=center;verticalAlign=middle;resizable=0;points=[];fontSize=30;" parent="Qj9Xfp4AFoNcpgFwBMmY-133" vertex="1" connectable="0">
          <mxGeometry x="0.102" y="1" relative="1" as="geometry">
            <mxPoint x="-12.25" y="-11" as="offset" />
          </mxGeometry>
        </mxCell>
        <mxCell id="Qj9Xfp4AFoNcpgFwBMmY-38" value="Managed" style="rounded=0;whiteSpace=wrap;html=1;" parent="1" vertex="1">
          <mxGeometry x="2660" y="-1090" width="120" height="60" as="geometry" />
        </mxCell>
        <mxCell id="Qj9Xfp4AFoNcpgFwBMmY-67" style="edgeStyle=orthogonalEdgeStyle;rounded=0;orthogonalLoop=1;jettySize=auto;html=1;exitX=0.75;exitY=0;exitDx=0;exitDy=0;entryX=0.75;entryY=1;entryDx=0;entryDy=0;" parent="1" source="Qj9Xfp4AFoNcpgFwBMmY-39" target="Qj9Xfp4AFoNcpgFwBMmY-38" edge="1">
          <mxGeometry x="2220" y="-1210" as="geometry" />
        </mxCell>
        <mxCell id="Qj9Xfp4AFoNcpgFwBMmY-92" value="&lt;span style=&quot;font-size: 12px&quot;&gt;persist&lt;/span&gt;" style="edgeLabel;html=1;align=center;verticalAlign=middle;resizable=0;points=[];" parent="Qj9Xfp4AFoNcpgFwBMmY-67" vertex="1" connectable="0">
          <mxGeometry x="-0.1143" y="1" relative="1" as="geometry">
            <mxPoint as="offset" />
          </mxGeometry>
        </mxCell>
        <mxCell id="Qj9Xfp4AFoNcpgFwBMmY-68" style="edgeStyle=orthogonalEdgeStyle;rounded=0;orthogonalLoop=1;jettySize=auto;html=1;exitX=0;exitY=0.5;exitDx=0;exitDy=0;" parent="1" source="Qj9Xfp4AFoNcpgFwBMmY-39" target="Qj9Xfp4AFoNcpgFwBMmY-37" edge="1">
          <mxGeometry x="2220" y="-1210" as="geometry" />
        </mxCell>
        <mxCell id="Qj9Xfp4AFoNcpgFwBMmY-86" value="&lt;span style=&quot;font-size: 12px&quot;&gt;clear / close&lt;/span&gt;" style="edgeLabel;html=1;align=center;verticalAlign=middle;resizable=0;points=[];" parent="Qj9Xfp4AFoNcpgFwBMmY-68" vertex="1" connectable="0">
          <mxGeometry x="0.5898" y="1" relative="1" as="geometry">
            <mxPoint x="41.43" y="-1" as="offset" />
          </mxGeometry>
        </mxCell>
        <mxCell id="Qj9Xfp4AFoNcpgFwBMmY-39" value="Removed" style="rounded=0;whiteSpace=wrap;html=1;" parent="1" vertex="1">
          <mxGeometry x="2660" y="-930" width="120" height="60" as="geometry" />
        </mxCell>
        <mxCell id="Qj9Xfp4AFoNcpgFwBMmY-63" style="edgeStyle=orthogonalEdgeStyle;rounded=0;orthogonalLoop=1;jettySize=auto;html=1;" parent="1" source="Qj9Xfp4AFoNcpgFwBMmY-35" target="Qj9Xfp4AFoNcpgFwBMmY-38" edge="1">
          <mxGeometry x="2220" y="-1210" as="geometry" />
        </mxCell>
        <mxCell id="Qj9Xfp4AFoNcpgFwBMmY-87" value="persist" style="edgeLabel;html=1;align=center;verticalAlign=middle;resizable=0;points=[];" parent="Qj9Xfp4AFoNcpgFwBMmY-63" vertex="1" connectable="0">
          <mxGeometry x="-0.402" y="1" relative="1" as="geometry">
            <mxPoint x="18.29" y="1" as="offset" />
          </mxGeometry>
        </mxCell>
        <mxCell id="Qj9Xfp4AFoNcpgFwBMmY-69" style="edgeStyle=orthogonalEdgeStyle;rounded=0;orthogonalLoop=1;jettySize=auto;html=1;" parent="1" target="Qj9Xfp4AFoNcpgFwBMmY-35" edge="1">
          <mxGeometry x="2220" y="-1210" as="geometry">
            <mxPoint x="2330" y="-1060" as="sourcePoint" />
          </mxGeometry>
        </mxCell>
        <mxCell id="Qj9Xfp4AFoNcpgFwBMmY-56" value="DB" style="shape=cylinder3;whiteSpace=wrap;html=1;boundedLbl=1;backgroundOutline=1;size=15;" parent="1" vertex="1">
          <mxGeometry x="3310" y="-1060" width="170" height="170" as="geometry" />
        </mxCell>
        <mxCell id="Qj9Xfp4AFoNcpgFwBMmY-58" value="" style="endArrow=none;dashed=1;html=1;dashPattern=1 3;strokeWidth=2;" parent="1" edge="1">
          <mxGeometry x="2220" y="-1210" width="50" height="50" as="geometry">
            <mxPoint x="2900" y="-1070" as="sourcePoint" />
            <mxPoint x="2900" y="-1202.75" as="targetPoint" />
          </mxGeometry>
        </mxCell>
        <mxCell id="Qj9Xfp4AFoNcpgFwBMmY-65" value="" style="endArrow=classic;html=1;entryX=1;entryY=0;entryDx=0;entryDy=0;exitX=0.158;exitY=1.014;exitDx=0;exitDy=0;exitPerimeter=0;" parent="1" source="Qj9Xfp4AFoNcpgFwBMmY-38" target="Qj9Xfp4AFoNcpgFwBMmY-37" edge="1">
          <mxGeometry x="2220" y="-1210" width="50" height="50" as="geometry">
            <mxPoint x="2590" y="-970" as="sourcePoint" />
            <mxPoint x="2640" y="-1020" as="targetPoint" />
          </mxGeometry>
        </mxCell>
        <mxCell id="Qj9Xfp4AFoNcpgFwBMmY-85" value="&lt;span style=&quot;font-size: 12px&quot;&gt;clear / close&lt;/span&gt;" style="edgeLabel;html=1;align=center;verticalAlign=middle;resizable=0;points=[];" parent="Qj9Xfp4AFoNcpgFwBMmY-65" vertex="1" connectable="0">
          <mxGeometry x="0.5295" y="-2" relative="1" as="geometry">
            <mxPoint x="38.11" y="-29.759999999999998" as="offset" />
          </mxGeometry>
        </mxCell>
        <mxCell id="Qj9Xfp4AFoNcpgFwBMmY-111" value="after transaction" style="edgeLabel;html=1;align=center;verticalAlign=middle;resizable=0;points=[];" parent="Qj9Xfp4AFoNcpgFwBMmY-65" vertex="1" connectable="0">
          <mxGeometry x="0.4979" y="-3" relative="1" as="geometry">
            <mxPoint x="21.9" y="-2.69" as="offset" />
          </mxGeometry>
        </mxCell>
        <mxCell id="Qj9Xfp4AFoNcpgFwBMmY-73" style="edgeStyle=orthogonalEdgeStyle;rounded=0;orthogonalLoop=1;jettySize=auto;html=1;exitX=0;exitY=0.5;exitDx=0;exitDy=0;" parent="1" edge="1">
          <mxGeometry x="2220" y="-1210" as="geometry">
            <mxPoint x="3300" y="-965.29" as="sourcePoint" />
            <mxPoint x="3160" y="-965.29" as="targetPoint" />
          </mxGeometry>
        </mxCell>
        <mxCell id="Qj9Xfp4AFoNcpgFwBMmY-66" style="edgeStyle=orthogonalEdgeStyle;rounded=0;orthogonalLoop=1;jettySize=auto;html=1;exitX=0.25;exitY=1;exitDx=0;exitDy=0;entryX=0.25;entryY=0;entryDx=0;entryDy=0;" parent="1" source="Qj9Xfp4AFoNcpgFwBMmY-38" target="Qj9Xfp4AFoNcpgFwBMmY-39" edge="1">
          <mxGeometry x="2220" y="-1210" as="geometry" />
        </mxCell>
        <mxCell id="Qj9Xfp4AFoNcpgFwBMmY-91" value="&lt;span style=&quot;font-size: 12px&quot;&gt;remove&lt;/span&gt;" style="edgeLabel;html=1;align=center;verticalAlign=middle;resizable=0;points=[];" parent="Qj9Xfp4AFoNcpgFwBMmY-66" vertex="1" connectable="0">
          <mxGeometry x="0.1371" relative="1" as="geometry">
            <mxPoint as="offset" />
          </mxGeometry>
        </mxCell>
        <mxCell id="Qj9Xfp4AFoNcpgFwBMmY-75" value="" style="endArrow=classic;html=1;exitX=1;exitY=0.75;exitDx=0;exitDy=0;entryX=0.004;entryY=0.404;entryDx=0;entryDy=0;entryPerimeter=0;" parent="1" source="Qj9Xfp4AFoNcpgFwBMmY-38" target="Qj9Xfp4AFoNcpgFwBMmY-34" edge="1">
          <mxGeometry x="2220" y="-1210" width="50" height="50" as="geometry">
            <mxPoint x="2870" y="-1100" as="sourcePoint" />
            <mxPoint x="2920" y="-1150" as="targetPoint" />
          </mxGeometry>
        </mxCell>
        <mxCell id="Qj9Xfp4AFoNcpgFwBMmY-81" value="flush / commit" style="edgeLabel;html=1;align=center;verticalAlign=middle;resizable=0;points=[];" parent="Qj9Xfp4AFoNcpgFwBMmY-75" vertex="1" connectable="0">
          <mxGeometry x="0.3611" relative="1" as="geometry">
            <mxPoint x="-6.52" as="offset" />
          </mxGeometry>
        </mxCell>
        <mxCell id="Qj9Xfp4AFoNcpgFwBMmY-76" value="" style="endArrow=classic;html=1;entryX=1;entryY=0.25;entryDx=0;entryDy=0;exitX=0.056;exitY=0.267;exitDx=0;exitDy=0;exitPerimeter=0;" parent="1" source="Qj9Xfp4AFoNcpgFwBMmY-34" target="Qj9Xfp4AFoNcpgFwBMmY-38" edge="1">
          <mxGeometry x="2220" y="-1210" width="50" height="50" as="geometry">
            <mxPoint x="2910" y="-1020" as="sourcePoint" />
            <mxPoint x="2960" y="-1070" as="targetPoint" />
          </mxGeometry>
        </mxCell>
        <mxCell id="Qj9Xfp4AFoNcpgFwBMmY-80" value="retrieve / find / query" style="edgeLabel;html=1;align=center;verticalAlign=middle;resizable=0;points=[];" parent="Qj9Xfp4AFoNcpgFwBMmY-76" vertex="1" connectable="0">
          <mxGeometry x="0.1171" relative="1" as="geometry">
            <mxPoint x="27.47" y="-2.2799999999999994" as="offset" />
          </mxGeometry>
        </mxCell>
        <mxCell id="Qj9Xfp4AFoNcpgFwBMmY-77" value="" style="endArrow=classic;html=1;exitX=1;exitY=0.5;exitDx=0;exitDy=0;entryX=0;entryY=0.627;entryDx=0;entryDy=0;entryPerimeter=0;" parent="1" source="Qj9Xfp4AFoNcpgFwBMmY-39" target="Qj9Xfp4AFoNcpgFwBMmY-34" edge="1">
          <mxGeometry x="2220" y="-1210" width="50" height="50" as="geometry">
            <mxPoint x="2790" y="-1035" as="sourcePoint" />
            <mxPoint x="2990.702" y="-979.098" as="targetPoint" />
          </mxGeometry>
        </mxCell>
        <mxCell id="Qj9Xfp4AFoNcpgFwBMmY-82" value="flush / commit" style="edgeLabel;html=1;align=center;verticalAlign=middle;resizable=0;points=[];" parent="Qj9Xfp4AFoNcpgFwBMmY-77" vertex="1" connectable="0">
          <mxGeometry x="0.2169" y="2" relative="1" as="geometry">
            <mxPoint as="offset" />
          </mxGeometry>
        </mxCell>
        <mxCell id="Qj9Xfp4AFoNcpgFwBMmY-78" value="" style="endArrow=none;dashed=1;html=1;dashPattern=1 3;strokeWidth=2;" parent="1" edge="1">
          <mxGeometry x="2220" y="-1210" width="50" height="50" as="geometry">
            <mxPoint x="2900" y="-960" as="sourcePoint" />
            <mxPoint x="2900" y="-990" as="targetPoint" />
          </mxGeometry>
        </mxCell>
        <mxCell id="Qj9Xfp4AFoNcpgFwBMmY-79" value="" style="endArrow=none;dashed=1;html=1;dashPattern=1 3;strokeWidth=2;" parent="1" edge="1">
          <mxGeometry x="2220" y="-1210" width="50" height="50" as="geometry">
            <mxPoint x="2900" y="-767.25" as="sourcePoint" />
            <mxPoint x="2900" y="-900" as="targetPoint" />
          </mxGeometry>
        </mxCell>
        <mxCell id="Qj9Xfp4AFoNcpgFwBMmY-93" value="&lt;font style=&quot;font-size: 12px&quot;&gt;in db but not in persitenceContext&lt;/font&gt;" style="shape=note;strokeWidth=2;fontSize=14;size=20;whiteSpace=wrap;html=1;fillColor=#fff2cc;strokeColor=#d6b656;fontColor=#666600;" parent="1" vertex="1">
          <mxGeometry x="2405" y="-790" width="110.00000000000001" height="80" as="geometry" />
        </mxCell>
        <mxCell id="Qj9Xfp4AFoNcpgFwBMmY-94" style="edgeStyle=orthogonalEdgeStyle;rounded=0;orthogonalLoop=1;jettySize=auto;html=1;exitX=0.5;exitY=1;exitDx=0;exitDy=0;" parent="1" source="Qj9Xfp4AFoNcpgFwBMmY-37" target="Qj9Xfp4AFoNcpgFwBMmY-93" edge="1">
          <mxGeometry x="2220" y="-1210" as="geometry" />
        </mxCell>
        <mxCell id="Qj9Xfp4AFoNcpgFwBMmY-95" value="&lt;font style=&quot;font-size: 12px&quot;&gt;not in db and persitenceContext.&amp;nbsp;&lt;br&gt;On commit its remove from persistence Context&lt;br&gt;&lt;/font&gt;" style="shape=note;strokeWidth=2;fontSize=14;size=20;whiteSpace=wrap;html=1;fillColor=#fff2cc;strokeColor=#d6b656;fontColor=#666600;" parent="1" vertex="1">
          <mxGeometry x="2637.5" y="-790" width="165" height="100" as="geometry" />
        </mxCell>
        <mxCell id="Qj9Xfp4AFoNcpgFwBMmY-100" value="" style="ellipse;whiteSpace=wrap;html=1;aspect=fixed;fillColor=#f8cecc;strokeColor=#b85450;" parent="1" vertex="1">
          <mxGeometry x="2752" y="-1085" width="20" height="20" as="geometry" />
        </mxCell>
        <mxCell id="Qj9Xfp4AFoNcpgFwBMmY-101" value="" style="ellipse;whiteSpace=wrap;html=1;aspect=fixed;fillColor=#d5e8d4;strokeColor=#82b366;" parent="1" vertex="1">
          <mxGeometry x="2495" y="-920" width="20" height="20" as="geometry" />
        </mxCell>
        <mxCell id="Qj9Xfp4AFoNcpgFwBMmY-102" value="" style="ellipse;whiteSpace=wrap;html=1;aspect=fixed;fillColor=#d5e8d4;strokeColor=#82b366;" parent="1" vertex="1">
          <mxGeometry x="2980" y="-890" width="20" height="20" as="geometry" />
        </mxCell>
        <mxCell id="Qj9Xfp4AFoNcpgFwBMmY-103" value="" style="ellipse;whiteSpace=wrap;html=1;aspect=fixed;fillColor=#d5e8d4;strokeColor=#82b366;" parent="1" vertex="1">
          <mxGeometry x="3360" y="-1010" width="20" height="20" as="geometry" />
        </mxCell>
        <mxCell id="Qj9Xfp4AFoNcpgFwBMmY-104" value="" style="ellipse;whiteSpace=wrap;html=1;aspect=fixed;fillColor=#fff2cc;strokeColor=#d6b656;" parent="1" vertex="1">
          <mxGeometry x="2750" y="-920" width="20" height="20" as="geometry" />
        </mxCell>
        <mxCell id="Qj9Xfp4AFoNcpgFwBMmY-105" value="" style="ellipse;whiteSpace=wrap;html=1;aspect=fixed;fillColor=#fff2cc;strokeColor=#d6b656;" parent="1" vertex="1">
          <mxGeometry x="3030" y="-870" width="20" height="20" as="geometry" />
        </mxCell>
        <mxCell id="Qj9Xfp4AFoNcpgFwBMmY-107" value="" style="ellipse;whiteSpace=wrap;html=1;aspect=fixed;fillColor=#dae8fc;strokeColor=#6c8ebf;" parent="1" vertex="1">
          <mxGeometry x="2820" y="-1040" width="20" height="20" as="geometry" />
        </mxCell>
        <mxCell id="Qj9Xfp4AFoNcpgFwBMmY-110" value="" style="ellipse;whiteSpace=wrap;html=1;aspect=fixed;fillColor=#dae8fc;strokeColor=#6c8ebf;" parent="1" vertex="1">
          <mxGeometry x="3370" y="-1010" width="20" height="20" as="geometry" />
        </mxCell>
        <mxCell id="Qj9Xfp4AFoNcpgFwBMmY-112" value="" style="ellipse;whiteSpace=wrap;html=1;aspect=fixed;fillColor=#f8cecc;strokeColor=#b85450;" parent="1" vertex="1">
          <mxGeometry x="2495" y="-1087" width="20" height="20" as="geometry" />
        </mxCell>
        <mxCell id="Qj9Xfp4AFoNcpgFwBMmY-113" value="" style="ellipse;whiteSpace=wrap;html=1;aspect=fixed;fillColor=#dae8fc;strokeColor=#6c8ebf;" parent="1" vertex="1">
          <mxGeometry x="3061" y="-1040" width="20" height="20" as="geometry" />
        </mxCell>
        <mxCell id="Qj9Xfp4AFoNcpgFwBMmY-99" value="" style="ellipse;whiteSpace=wrap;html=1;aspect=fixed;fillColor=#f8cecc;strokeColor=#b85450;" parent="1" vertex="1">
          <mxGeometry x="3057.75" y="-1040" width="20" height="20" as="geometry" />
        </mxCell>
        <mxCell id="Qj9Xfp4AFoNcpgFwBMmY-114" value="" style="endArrow=classic;html=1;entryX=0;entryY=0.471;entryDx=0;entryDy=0;entryPerimeter=0;" parent="1" target="Qj9Xfp4AFoNcpgFwBMmY-56" edge="1">
          <mxGeometry x="2220" y="-1210" width="50" height="50" as="geometry">
            <mxPoint x="3160" y="-980" as="sourcePoint" />
            <mxPoint x="3300" y="-970" as="targetPoint" />
          </mxGeometry>
        </mxCell>
        <mxCell id="Qj9Xfp4AFoNcpgFwBMmY-116" value="" style="endArrow=classic;html=1;entryX=0;entryY=0.75;entryDx=0;entryDy=0;" parent="1" target="Qj9Xfp4AFoNcpgFwBMmY-38" edge="1">
          <mxGeometry x="2220" y="-1210" width="50" height="50" as="geometry">
            <mxPoint x="2430" y="-930" as="sourcePoint" />
            <mxPoint x="2480" y="-980" as="targetPoint" />
          </mxGeometry>
        </mxCell>
        <mxCell id="Qj9Xfp4AFoNcpgFwBMmY-117" value="merge" style="edgeLabel;html=1;align=center;verticalAlign=middle;resizable=0;points=[];" parent="Qj9Xfp4AFoNcpgFwBMmY-116" vertex="1" connectable="0">
          <mxGeometry x="-0.2626" relative="1" as="geometry">
            <mxPoint x="-34.84" y="17.42" as="offset" />
          </mxGeometry>
        </mxCell>
        <mxCell id="Qj9Xfp4AFoNcpgFwBMmY-118" value="" style="ellipse;whiteSpace=wrap;html=1;aspect=fixed;fillColor=#d80073;strokeColor=#A50040;fontColor=#ffffff;" parent="1" vertex="1">
          <mxGeometry x="2495" y="-985" width="20" height="20" as="geometry" />
        </mxCell>
        <mxCell id="Qj9Xfp4AFoNcpgFwBMmY-124" value="" style="ellipse;whiteSpace=wrap;html=1;aspect=fixed;fillColor=#d80073;strokeColor=#A50040;fontColor=#ffffff;" parent="1" vertex="1">
          <mxGeometry x="3420" y="-990" width="20" height="20" as="geometry" />
        </mxCell>
        <mxCell id="Qj9Xfp4AFoNcpgFwBMmY-127" style="edgeStyle=orthogonalEdgeStyle;rounded=0;orthogonalLoop=1;jettySize=auto;html=1;" parent="1" source="Qj9Xfp4AFoNcpgFwBMmY-126" target="Qj9Xfp4AFoNcpgFwBMmY-34" edge="1">
          <mxGeometry x="2220" y="-1210" as="geometry" />
        </mxCell>
        <mxCell id="Qj9Xfp4AFoNcpgFwBMmY-126" value="entity manager" style="whiteSpace=wrap;html=1;" parent="1" vertex="1">
          <mxGeometry x="3007.75" y="-1210" width="120" height="30" as="geometry" />
        </mxCell>
        <mxCell id="Qj9Xfp4AFoNcpgFwBMmY-98" value="" style="edgeStyle=orthogonalEdgeStyle;rounded=0;orthogonalLoop=1;jettySize=auto;html=1;" parent="1" source="Qj9Xfp4AFoNcpgFwBMmY-39" target="Qj9Xfp4AFoNcpgFwBMmY-95" edge="1">
          <mxGeometry x="2220" y="-1210" as="geometry" />
        </mxCell>
        <mxCell id="Qj9Xfp4AFoNcpgFwBMmY-129" value="Hibernate Entity Life Cycle" style="text;html=1;align=center;verticalAlign=middle;resizable=0;points=[];autosize=1;fontSize=30;" parent="1" vertex="1">
          <mxGeometry x="2120" y="-1290" width="370" height="40" as="geometry" />
        </mxCell>
        <mxCell id="Qj9Xfp4AFoNcpgFwBMmY-132" value="" style="group" parent="1" vertex="1" connectable="0">
          <mxGeometry x="2210" y="-1130" width="50" height="70" as="geometry" />
        </mxCell>
        <mxCell id="Qj9Xfp4AFoNcpgFwBMmY-88" value="Student maria = new Student()" style="shape=umlActor;verticalLabelPosition=bottom;verticalAlign=top;html=1;outlineConnect=0;" parent="Qj9Xfp4AFoNcpgFwBMmY-132" vertex="1">
          <mxGeometry x="10" y="10" width="30" height="60" as="geometry" />
        </mxCell>
        <mxCell id="Qj9Xfp4AFoNcpgFwBMmY-130" value="" style="ellipse;whiteSpace=wrap;html=1;aspect=fixed;fillColor=#f8cecc;strokeColor=#b85450;" parent="Qj9Xfp4AFoNcpgFwBMmY-132" vertex="1">
          <mxGeometry x="5" width="40" height="40" as="geometry" />
        </mxCell>
        <mxCell id="Qj9Xfp4AFoNcpgFwBMmY-131" value="" style="endArrow=none;html=1;fontSize=30;" parent="Qj9Xfp4AFoNcpgFwBMmY-132" edge="1">
          <mxGeometry width="50" height="50" relative="1" as="geometry">
            <mxPoint y="45" as="sourcePoint" />
            <mxPoint x="50" y="45" as="targetPoint" />
          </mxGeometry>
        </mxCell>
        <mxCell id="Z7voJ8Bq8wY7bA-Yl-KX-17" value="The main goal of a transaction is to provide &lt;b&gt;ACID&lt;/b&gt; characteristics to ensure the consistency and validity of your data." style="text;whiteSpace=wrap;html=1;" parent="1" vertex="1">
          <mxGeometry x="-1240" y="-2400" width="550" height="40" as="geometry" />
        </mxCell>
        <mxCell id="Z7voJ8Bq8wY7bA-Yl-KX-19" value="Database Transaction" style="text;whiteSpace=wrap;html=1;fontSize=34;" parent="1" vertex="1">
          <mxGeometry x="-1260" y="-2520" width="340" height="40" as="geometry" />
        </mxCell>
        <mxCell id="Z7voJ8Bq8wY7bA-Yl-KX-20" value="A database transaction symbolizes a unit of work performed within a database management system against a database, and treated in a coherent and reliable way independent of other transactions." style="text;whiteSpace=wrap;html=1;" parent="1" vertex="1">
          <mxGeometry x="-1240" y="-2450" width="550" height="60" as="geometry" />
        </mxCell>
        <mxCell id="Z7voJ8Bq8wY7bA-Yl-KX-38" value="" style="group" parent="1" vertex="1" connectable="0">
          <mxGeometry x="-1200" y="-2100" width="550" height="60" as="geometry" />
        </mxCell>
        <mxCell id="Z7voJ8Bq8wY7bA-Yl-KX-31" value="&lt;span style=&quot;color: rgb(0 , 0 , 0) ; font-size: 12px ; font-style: normal ; font-weight: 400 ; letter-spacing: normal ; text-align: left ; text-indent: 0px ; text-transform: none ; word-spacing: 0px ; font-family: &amp;#34;helvetica&amp;#34; ; background-color: rgb(255 , 255 , 255) ; display: inline ; float: none&quot;&gt;Changes performed within a transaction are not visible to any other transactions until you commit them successfully.&lt;/span&gt;&lt;b style=&quot;color: rgb(0 , 0 , 0) ; font-size: 12px ; font-style: normal ; letter-spacing: normal ; text-align: left ; text-indent: 0px ; text-transform: none ; word-spacing: 0px ; font-family: &amp;#34;helvetica&amp;#34; ; background-color: rgb(255 , 255 , 255)&quot;&gt;&lt;br&gt;&lt;/b&gt;" style="text;whiteSpace=wrap;html=1;fontSize=12;" parent="Z7voJ8Bq8wY7bA-Yl-KX-38" vertex="1">
          <mxGeometry y="20" width="550" height="40" as="geometry" />
        </mxCell>
        <mxCell id="Z7voJ8Bq8wY7bA-Yl-KX-36" value="&lt;b style=&quot;text-align: left ; font-family: &amp;#34;helvetica&amp;#34;&quot;&gt;Isolation&lt;/b&gt;" style="text;html=1;align=center;verticalAlign=middle;resizable=0;points=[];autosize=1;fontSize=12;fillColor=#e1d5e7;strokeColor=#9673a6;" parent="Z7voJ8Bq8wY7bA-Yl-KX-38" vertex="1">
          <mxGeometry width="60" height="20" as="geometry" />
        </mxCell>
        <mxCell id="Z7voJ8Bq8wY7bA-Yl-KX-39" value="" style="group" parent="1" vertex="1" connectable="0">
          <mxGeometry x="-1200" y="-2030" width="360" height="50" as="geometry" />
        </mxCell>
        <mxCell id="Z7voJ8Bq8wY7bA-Yl-KX-32" value="&lt;span style=&quot;color: rgb(0 , 0 , 0) ; font-size: 12px ; font-style: normal ; font-weight: 400 ; letter-spacing: normal ; text-align: left ; text-indent: 0px ; text-transform: none ; word-spacing: 0px ; font-family: &amp;#34;helvetica&amp;#34; ; background-color: rgb(255 , 255 , 255) ; display: inline ; float: none&quot;&gt;Ensures that your committed changes get persisted.&lt;/span&gt;" style="text;whiteSpace=wrap;html=1;fontSize=12;" parent="Z7voJ8Bq8wY7bA-Yl-KX-39" vertex="1">
          <mxGeometry y="20" width="360" height="30" as="geometry" />
        </mxCell>
        <mxCell id="Z7voJ8Bq8wY7bA-Yl-KX-37" value="&lt;b style=&quot;text-align: left ; font-family: &amp;#34;helvetica&amp;#34;&quot;&gt;Durability&lt;/b&gt;" style="text;html=1;align=center;verticalAlign=middle;resizable=0;points=[];autosize=1;fontSize=12;fillColor=#d80073;strokeColor=#A50040;fontColor=#ffffff;" parent="Z7voJ8Bq8wY7bA-Yl-KX-39" vertex="1">
          <mxGeometry width="70" height="20" as="geometry" />
        </mxCell>
        <mxCell id="Z7voJ8Bq8wY7bA-Yl-KX-40" value="" style="group" parent="1" vertex="1" connectable="0">
          <mxGeometry x="-1200" y="-2220" width="550" height="110" as="geometry" />
        </mxCell>
        <mxCell id="Z7voJ8Bq8wY7bA-Yl-KX-30" value="&lt;span style=&quot;color: rgb(0 , 0 , 0) ; font-family: &amp;#34;helvetica&amp;#34; ; font-size: 12px ; font-style: normal ; font-weight: 400 ; letter-spacing: normal ; text-align: left ; text-indent: 0px ; text-transform: none ; word-spacing: 0px ; background-color: rgb(255 , 255 , 255) ; display: inline ; float: none&quot;&gt;Ensures that your transaction takes a system from one consistent state to another consistent state. That means that either all operations were rolled back and the data was set back to the state you started with or the changed data passed all consistency checks. In a relational database, that means that the modified data needs to pass all constraint checks, like foreign key or unique constraints, defined in your database.&lt;/span&gt;&lt;br style=&quot;color: rgb(0 , 0 , 0) ; font-family: &amp;#34;helvetica&amp;#34; ; font-size: 12px ; font-style: normal ; font-weight: 400 ; letter-spacing: normal ; text-align: left ; text-indent: 0px ; text-transform: none ; word-spacing: 0px ; background-color: rgb(255 , 255 , 255)&quot;&gt;" style="text;whiteSpace=wrap;html=1;fontSize=12;" parent="Z7voJ8Bq8wY7bA-Yl-KX-40" vertex="1">
          <mxGeometry y="20" width="550" height="90" as="geometry" />
        </mxCell>
        <mxCell id="Z7voJ8Bq8wY7bA-Yl-KX-34" value="&lt;b style=&quot;text-align: left ; font-family: &amp;#34;helvetica&amp;#34;&quot;&gt;Consistency&lt;/b&gt;" style="text;html=1;align=center;verticalAlign=middle;resizable=0;points=[];autosize=1;fontSize=12;fillColor=#d5e8d4;strokeColor=#82b366;" parent="Z7voJ8Bq8wY7bA-Yl-KX-40" vertex="1">
          <mxGeometry width="90" height="20" as="geometry" />
        </mxCell>
        <mxCell id="Z7voJ8Bq8wY7bA-Yl-KX-41" value="" style="group" parent="1" vertex="1" connectable="0">
          <mxGeometry x="-1200" y="-2330" width="550" height="100" as="geometry" />
        </mxCell>
        <mxCell id="Z7voJ8Bq8wY7bA-Yl-KX-15" value="All or Nothing principle. &lt;br&gt;Either all operations performed within the transaction get executed or none of them. &lt;br&gt;That means if you commit the transaction successfully, you can be sure that all operations got performed. It also enables you to abort a transaction and &lt;b&gt;roll back&lt;/b&gt; all operations if an error occurs.&lt;br&gt;" style="text;whiteSpace=wrap;html=1;" parent="Z7voJ8Bq8wY7bA-Yl-KX-41" vertex="1">
          <mxGeometry y="20" width="550" height="80" as="geometry" />
        </mxCell>
        <mxCell id="Z7voJ8Bq8wY7bA-Yl-KX-33" value="&lt;b style=&quot;text-align: left ; font-family: &amp;#34;helvetica&amp;#34;&quot;&gt;Atomicity&lt;/b&gt;" style="text;html=1;align=center;verticalAlign=middle;resizable=0;points=[];autosize=1;fontSize=12;fillColor=#dae8fc;strokeColor=#6c8ebf;" parent="Z7voJ8Bq8wY7bA-Yl-KX-41" vertex="1">
          <mxGeometry width="70" height="20" as="geometry" />
        </mxCell>
        <mxCell id="Z7voJ8Bq8wY7bA-Yl-KX-42" value="" style="group" parent="1" vertex="1" connectable="0">
          <mxGeometry x="-582.5" y="-2490" width="135" height="360" as="geometry" />
        </mxCell>
        <mxCell id="Z7voJ8Bq8wY7bA-Yl-KX-21" value="" style="shape=cylinder3;whiteSpace=wrap;html=1;boundedLbl=1;backgroundOutline=1;size=15;fontSize=34;" parent="Z7voJ8Bq8wY7bA-Yl-KX-42" vertex="1">
          <mxGeometry y="220" width="135" height="140" as="geometry" />
        </mxCell>
        <mxCell id="Z7voJ8Bq8wY7bA-Yl-KX-28" style="edgeStyle=orthogonalEdgeStyle;rounded=0;orthogonalLoop=1;jettySize=auto;html=1;exitX=0.5;exitY=1;exitDx=0;exitDy=0;fontSize=12;" parent="Z7voJ8Bq8wY7bA-Yl-KX-42" source="Z7voJ8Bq8wY7bA-Yl-KX-25" edge="1">
          <mxGeometry relative="1" as="geometry">
            <mxPoint x="67.54761904761881" y="210" as="targetPoint" />
          </mxGeometry>
        </mxCell>
        <mxCell id="Z7voJ8Bq8wY7bA-Yl-KX-25" value="&amp;nbsp;change&amp;nbsp;" style="text;whiteSpace=wrap;html=1;fontSize=12;fillColor=#ffe6cc;strokeColor=#d79b00;" parent="Z7voJ8Bq8wY7bA-Yl-KX-42" vertex="1">
          <mxGeometry x="42.5" y="110" width="50" height="30" as="geometry" />
        </mxCell>
        <mxCell id="Z7voJ8Bq8wY7bA-Yl-KX-26" value="" style="endArrow=none;html=1;fontSize=12;entryX=0.5;entryY=0;entryDx=0;entryDy=0;endFill=0;" parent="Z7voJ8Bq8wY7bA-Yl-KX-42" target="Z7voJ8Bq8wY7bA-Yl-KX-25" edge="1">
          <mxGeometry width="50" height="50" relative="1" as="geometry">
            <mxPoint x="-327.5" as="sourcePoint" />
            <mxPoint x="-247.5" y="-10" as="targetPoint" />
            <Array as="points">
              <mxPoint x="67.5" />
            </Array>
          </mxGeometry>
        </mxCell>
        <mxCell id="9BPYF5vY04bBH0tFQ1GY-1" style="edgeStyle=orthogonalEdgeStyle;curved=1;rounded=0;orthogonalLoop=1;jettySize=auto;html=1;exitX=0;exitY=0.5;exitDx=0;exitDy=0;entryX=0;entryY=0.5;entryDx=0;entryDy=0;strokeColor=#d79b00;fillColor=#ffe6cc;strokeWidth=5;" edge="1" parent="1" source="M2bRDbCkIC7zwZt0Boz4-27" target="M2bRDbCkIC7zwZt0Boz4-115">
          <mxGeometry relative="1" as="geometry">
            <Array as="points">
              <mxPoint x="300" y="-600" />
              <mxPoint x="160" y="-600" />
              <mxPoint x="160" y="-275" />
            </Array>
          </mxGeometry>
        </mxCell>
        <mxCell id="9BPYF5vY04bBH0tFQ1GY-3" style="edgeStyle=orthogonalEdgeStyle;curved=1;rounded=0;orthogonalLoop=1;jettySize=auto;html=1;exitX=0;exitY=0.5;exitDx=0;exitDy=0;" edge="1" parent="1" source="M2bRDbCkIC7zwZt0Boz4-27">
          <mxGeometry relative="1" as="geometry">
            <mxPoint x="299.7142857142858" y="-594.5714285714284" as="targetPoint" />
          </mxGeometry>
        </mxCell>
      </root>
    </mxGraphModel>
  </diagram>
</mxfile>
